<?xml version="1.0" encoding="UTF-8"?>
<svg width="150px" height="67px" viewBox="0 0 150 67" version="1.1" xmlns="http://www.w3.org/2000/svg" xmlns:xlink="http://www.w3.org/1999/xlink">
    <!-- Generator: Sketch 50 (54983) - http://www.bohemiancoding.com/sketch -->
    <title>logo</title>
    <desc>Created with Sketch.</desc>
    <defs></defs>
    <g id="Page-1" stroke="none" stroke-width="1" fill="none" fill-rule="evenodd">
        <g id="Real-DesktopHD" transform="translate(-75.000000, -50.000000)">
            <g id="inicio">
                <g id="logo" transform="translate(75.000000, 50.000000)">
                    <path d="M59.3195,66 L52.0295,66 L52.0295,60.492 L51.8675,60.492 C50.463493,62.5440103 48.5330123,64.1369943 46.076,65.271 C43.6189877,66.4050057 41.094513,66.972 38.5025,66.972 C35.5324851,66.972 32.846012,66.4590051 30.443,65.433 C28.039988,64.4069949 25.9880085,62.9760092 24.287,61.14 C22.5859915,59.3039908 21.2765046,57.1710121 20.3585,54.741 C19.4404954,52.3109879 18.9815,49.6650143 18.9815,46.803 C18.9815,43.9409857 19.4404954,41.2815123 20.3585,38.8245 C21.2765046,36.3674877 22.5859915,34.234509 24.287,32.4255 C25.9880085,30.616491 28.039988,29.1990051 30.443,28.173 C32.846012,27.1469949 35.5324851,26.634 38.5025,26.634 C41.2565138,26.634 43.8484878,27.2144942 46.2785,28.3755 C48.7085121,29.5365058 50.5714935,31.11599 51.8675,33.114 L52.0295,33.114 L52.0295,4.764 L59.3195,4.764 L59.3195,66 Z M39.3935,60.168 C41.3375097,60.168 43.0924922,59.8305034 44.6585,59.1555 C46.2245078,58.4804966 47.5474946,57.5625058 48.6275,56.4015 C49.7075054,55.2404942 50.544497,53.8365082 51.1385,52.1895 C51.732503,50.5424918 52.0295,48.7470097 52.0295,46.803 C52.0295,44.8589903 51.732503,43.0635082 51.1385,41.4165 C50.544497,39.7694918 49.7075054,38.3655058 48.6275,37.2045 C47.5474946,36.0434942 46.2245078,35.1255034 44.6585,34.4505 C43.0924922,33.7754966 41.3375097,33.438 39.3935,33.438 C37.4494903,33.438 35.6945078,33.7754966 34.1285,34.4505 C32.5624922,35.1255034 31.2395054,36.0434942 30.1595,37.2045 C29.0794946,38.3655058 28.242503,39.7694918 27.6485,41.4165 C27.054497,43.0635082 26.7575,44.8589903 26.7575,46.803 C26.7575,48.7470097 27.054497,50.5424918 27.6485,52.1895 C28.242503,53.8365082 29.0794946,55.2404942 30.1595,56.4015 C31.2395054,57.5625058 32.5624922,58.4804966 34.1285,59.1555 C35.6945078,59.8305034 37.4494903,60.168 39.3935,60.168 Z M75.8435,49.476 C75.8435,51.1500084 76.2079964,52.6754931 76.937,54.0525 C77.6660036,55.4295069 78.6244941,56.6039951 79.8125,57.576 C81.0005059,58.5480049 82.3774922,59.3039973 83.9435,59.844 C85.5095078,60.3840027 87.1294916,60.654 88.8035,60.654 C91.0715113,60.654 93.0424916,60.1275053 94.7165,59.0745 C96.3905084,58.0214947 97.929493,56.6310086 99.3335,54.903 L104.8415,59.115 C100.79148,64.3530262 95.1215364,66.972 87.8315,66.972 C84.8074849,66.972 82.0670123,66.4590051 79.61,65.433 C77.1529877,64.4069949 75.0740085,62.989509 73.373,61.1805 C71.6719915,59.371491 70.3625046,57.2385123 69.4445,54.7815 C68.5264954,52.3244877 68.0675,49.6650143 68.0675,46.803 C68.0675,43.9409857 68.566995,41.2815123 69.566,38.8245 C70.565005,36.3674877 71.9419912,34.234509 73.697,32.4255 C75.4520088,30.616491 77.5444878,29.1990051 79.9745,28.173 C82.4045121,27.1469949 85.0504857,26.634 87.9125,26.634 C91.314517,26.634 94.1899883,27.2279941 96.539,28.416 C98.8880117,29.6040059 100.818492,31.1564904 102.3305,33.0735 C103.842508,34.9905096 104.935997,37.150488 105.611,39.5535 C106.286003,41.956512 106.6235,44.3999876 106.6235,46.884 L106.6235,49.476 L75.8435,49.476 Z M98.8475,43.644 C98.7934997,42.0239919 98.5370023,40.5390068 98.078,39.189 C97.6189977,37.8389933 96.9305046,36.664505 96.0125,35.6655 C95.0944954,34.666495 93.9470069,33.8835028 92.57,33.3165 C91.1929931,32.7494972 89.5865092,32.466 87.7505,32.466 C85.9684911,32.466 84.3350074,32.8034966 82.85,33.4785 C81.3649926,34.1535034 80.1095051,35.0309946 79.0835,36.111 C78.0574949,37.1910054 77.2610028,38.3924934 76.694,39.7155 C76.1269972,41.0385066 75.8435,42.3479935 75.8435,43.644 L98.8475,43.644 Z M110.7545,27.606 L119.1785,27.606 L130.6805,57.009 L141.6965,27.606 L149.4725,27.606 L134.4065,66 L126.3875,66 L110.7545,27.606 Z" id="dev" fill="#FFFFFF"></path>
                    <polygon id="7" fill="#63A6EB" points="15.8312 6.076 0.7112 6.076 0.7112 0.1144 23.0888 0.1144 23.0888 5.8168 10.8632 30.7 3.3032 30.7"></polygon>
                </g>
            </g>
        </g>
    </g>
</svg>